<svg width="1200" height="900" viewBox="0 0 1200 900" fill="none" xmlns="http://www.w3.org/2000/svg">
  <defs>
    <radialGradient id="bgGlow" cx="0" cy="0" r="1" gradientUnits="userSpaceOnUse" gradientTransform="translate(600 820) rotate(90) scale(520 860)">
      <stop stop-color="#4C1D95" stop-opacity="0.5"/>
      <stop offset="1" stop-color="#071330" stop-opacity="0"/>
    </radialGradient>
    <radialGradient id="nodeGlow" cx="0" cy="0" r="1" gradientUnits="userSpaceOnUse" gradientTransform="translate(0 0) rotate(90) scale(76 76)">
      <stop stop-color="#A78BFA" stop-opacity="0.65"/>
      <stop offset="1" stop-color="#A78BFA" stop-opacity="0"/>
    </radialGradient>
    <linearGradient id="nodeFill" x1="0" y1="0" x2="72" y2="72" gradientUnits="userSpaceOnUse">
      <stop stop-color="#E0E7FF"/>
      <stop offset="1" stop-color="#A78BFA"/>
    </linearGradient>
  </defs>

  <rect width="1200" height="900" rx="28" fill="#071330"/>
  <rect width="1200" height="900" rx="28" fill="url(#bgGlow)"/>

  <g transform="translate(600 138)">
    <circle cx="0" cy="0" r="76" fill="url(#nodeGlow)"/>
    <rect x="-36" y="-36" width="72" height="72" rx="16" fill="url(#nodeFill)"/>
    <rect x="-12" y="-18" width="24" height="36" rx="6" fill="#0F172A" fill-opacity="0.35"/>
    <circle cx="-8" cy="8" r="4" fill="#22C55E"/>
    <circle cx="8" cy="8" r="4" fill="#EF4444"/>
  </g>
  <text x="600" y="250" fill="white" font-family="system-ui, -apple-system, Segoe UI, Roboto, Helvetica, Arial, sans-serif" font-size="42" font-weight="600" text-anchor="middle">Incoming Customer Call</text>

  <g stroke="#8B5CF6" stroke-width="5" stroke-linecap="round" stroke-linejoin="round">
    <line x1="600" y1="280" x2="600" y2="338"/>
    <path d="M588 326L600 338L612 326"/>
  </g>

  <g transform="translate(600 420)">
    <circle cx="0" cy="0" r="86" fill="url(#nodeGlow)"/>
    <circle cx="0" cy="0" r="58" fill="url(#nodeFill)"/>
    <rect x="-24" y="-8" width="8" height="16" rx="4" fill="#0EA5E9"/>
    <rect x="-8" y="-16" width="8" height="32" rx="4" fill="#0EA5E9"/>
    <rect x="8" y="-12" width="8" height="24" rx="4" fill="#0EA5E9"/>
    <rect x="24" y="-6" width="8" height="12" rx="4" fill="#0EA5E9"/>
  </g>
  <text x="600" y="535" fill="white" font-family="system-ui, -apple-system, Segoe UI, Roboto, Helvetica, Arial, sans-serif" font-size="42" font-weight="600" text-anchor="middle">AI Voice Agent Responds</text>

  <g stroke="#8B5CF6" stroke-width="5" stroke-linecap="round" stroke-linejoin="round">
    <line x1="600" y1="562" x2="600" y2="620"/>
    <path d="M588 608L600 620L612 608"/>
  </g>

  <g transform="translate(600 702)">
    <circle cx="0" cy="0" r="76" fill="url(#nodeGlow)"/>
    <rect x="-42" y="-30" width="84" height="60" rx="10" fill="url(#nodeFill)"/>
    <line x1="-42" y1="-8" x2="42" y2="-8" stroke="#0F172A" stroke-opacity="0.24" stroke-width="4"/>
    <rect x="-22" y="8" width="16" height="12" rx="3" fill="#0EA5E9"/>
    <rect x="2" y="8" width="16" height="12" rx="3" fill="#8B5CF6"/>
  </g>
  <text x="600" y="810" fill="white" font-family="system-ui, -apple-system, Segoe UI, Roboto, Helvetica, Arial, sans-serif" font-size="42" font-weight="600" text-anchor="middle">Appointment Automatically Booked + Lead Stored in CRM</text>
</svg>
